<svg width="82" height="31" viewBox="0 0 82 31" fill="none" xmlns="http://www.w3.org/2000/svg">
<mask id="mask0_105_5194" style="mask-type:luminance" maskUnits="userSpaceOnUse" x="0" y="0" width="21" height="31">
<path d="M20.7353 0H0V30.9939H20.7353V0Z" fill="white"/>
</mask>
<g mask="url(#mask0_105_5194)">
<path d="M10.7444 -0.000223586C9.58359 0.000113801 8.47039 0.46071 7.64953 1.28031C6.82869 2.09991 6.36741 3.21144 6.36706 4.37053V6.35608H4.37849C3.80323 6.3556 3.23351 6.4684 2.70194 6.688C2.17038 6.90759 1.6874 7.22971 1.28064 7.63589C0.873875 8.04204 0.551313 8.52432 0.331408 9.05508C0.111503 9.58586 -0.00142906 10.1547 -0.00092613 10.7291V15.0983H6.36603V19.0694H4.37747C3.21629 19.0693 2.1026 19.5297 1.28132 20.3493C0.460052 21.169 -0.0015475 22.2807 -0.00195312 23.4401V30.9913H4.37952C4.95424 30.9911 5.52326 30.8778 6.05413 30.6578C6.58498 30.438 7.06724 30.1158 7.47341 29.7098C7.87956 29.3039 8.20163 28.8219 8.42125 28.2915C8.64085 27.7612 8.7537 27.193 8.75332 26.6192H8.75893V23.7343L8.74721 23.7359V5.35694L8.7569 5.35923V4.37129C8.75791 3.8445 8.96758 3.3395 9.34013 2.9665C9.71267 2.59351 10.2179 2.38282 10.7455 2.38039H18.3502V4.37129C18.3486 4.89784 18.1382 5.40232 17.7651 5.7744C17.3919 6.14648 16.8864 6.3559 16.3591 6.35684H9.65686V8.74001H16.358C17.5189 8.74008 18.6322 8.27971 19.4531 7.46018C20.2741 6.64065 20.7353 5.52911 20.7354 4.37003V-0.000732422L10.7444 -0.000223586ZM6.36706 12.7149H2.3884V10.7294C2.38928 10.202 2.59918 9.69635 2.97229 9.323C3.34537 8.94968 3.85132 8.73896 4.37952 8.73695H6.36808L6.36706 12.7149ZM6.36706 26.6214C6.36618 27.1478 6.15645 27.6527 5.78378 28.025C5.41109 28.3976 4.90581 28.6076 4.37849 28.6089H2.38738V23.4414C2.38786 22.9145 2.59787 22.4095 2.97124 22.0371C3.34463 21.6647 3.85079 21.4557 4.37849 21.4559H6.36706V26.6214ZM9.65686 15.0981H14.6792V17.0857C14.6773 17.6121 14.4668 18.1164 14.0937 18.4884C13.7207 18.8604 13.2154 19.0699 12.6881 19.0712H9.65686V21.4559H12.6892C13.2641 21.4562 13.8334 21.3434 14.3647 21.1238C14.8959 20.9043 15.3786 20.5823 15.7851 20.1764C16.1916 19.7705 16.5141 19.2885 16.7339 18.7581C16.9538 18.2277 17.0668 17.6592 17.0665 17.0852H17.0686V12.7144H9.65686V15.0981Z" fill="#0D6EFD"/>
</g>
<path d="M30.5989 10.515V0.248288H33.6032V13.6807H30.7727L30.5989 10.515ZM31.021 7.72175L32.0266 7.69692C32.0266 8.59903 31.9273 9.4308 31.7286 10.1922C31.53 10.9454 31.2238 11.6033 30.81 12.1661C30.3962 12.7206 29.8665 13.1551 29.2209 13.4696C28.5754 13.7758 27.8015 13.9289 26.8994 13.9289C26.2456 13.9289 25.6456 13.8338 25.0993 13.6434C24.5531 13.4531 24.0814 13.1593 23.6841 12.762C23.2951 12.3647 22.993 11.8475 22.7779 11.2102C22.5627 10.5729 22.4551 9.81151 22.4551 8.92595V0.248288H25.4469V8.95078C25.4469 9.43907 25.5049 9.84875 25.6207 10.1798C25.7366 10.5026 25.8939 10.7633 26.0925 10.9619C26.2911 11.1605 26.5229 11.3012 26.7877 11.384C27.0525 11.4668 27.3339 11.5081 27.6319 11.5081C28.4843 11.5081 29.1547 11.3426 29.643 11.0116C30.1396 10.6722 30.4913 10.217 30.6982 9.64598C30.9134 9.07492 31.021 8.43351 31.021 7.72175Z" fill="black"/>
<path d="M44.2051 10.0432C44.2051 9.7453 44.1306 9.47632 43.9816 9.23631C43.8327 8.98802 43.5471 8.76456 43.125 8.56593C42.7112 8.3673 42.0988 8.18522 41.2877 8.0197C40.576 7.86245 39.9221 7.67623 39.3262 7.46105C38.7386 7.23759 38.2338 6.96861 37.8117 6.65411C37.3896 6.33962 37.0627 5.96718 36.8309 5.53682C36.5992 5.10645 36.4833 4.60988 36.4833 4.04709C36.4833 3.50086 36.6033 2.98359 36.8434 2.49529C37.0834 2.00699 37.4268 1.57663 37.8738 1.2042C38.3207 0.831764 38.8628 0.537957 39.5 0.322774C40.1456 0.107591 40.8656 0 41.6601 0C42.7857 0 43.7499 0.190354 44.5527 0.571062C45.3638 0.943494 45.9845 1.45248 46.4149 2.09803C46.8452 2.7353 47.0604 3.45534 47.0604 4.25814H44.0685C44.0685 3.90226 43.9775 3.57121 43.7954 3.26498C43.6216 2.95049 43.3568 2.69806 43.0009 2.50771C42.645 2.30908 42.1981 2.20976 41.6601 2.20976C41.147 2.20976 40.7208 2.29252 40.3815 2.45805C40.0504 2.6153 39.8021 2.8222 39.6366 3.07877C39.4793 3.33533 39.4007 3.61673 39.4007 3.92295C39.4007 4.14641 39.4421 4.34917 39.5249 4.53125C39.6159 4.70505 39.7649 4.86644 39.9718 5.01541C40.1787 5.15611 40.4601 5.28853 40.816 5.41267C41.1801 5.53682 41.6353 5.65682 42.1815 5.77269C43.2078 5.98787 44.0892 6.26513 44.8258 6.60446C45.5707 6.93551 46.1417 7.36587 46.539 7.89555C46.9363 8.41696 47.1349 9.07906 47.1349 9.88186C47.1349 10.4777 47.0066 11.024 46.75 11.5206C46.5018 12.0089 46.1376 12.4351 45.6576 12.7992C45.1776 13.1551 44.6024 13.4324 43.932 13.631C43.2699 13.8296 42.525 13.9289 41.6974 13.9289C40.4808 13.9289 39.4504 13.7138 38.6062 13.2834C37.762 12.8448 37.1206 12.2861 36.682 11.6075C36.2516 10.9205 36.0364 10.2088 36.0364 9.47218H38.929C38.9621 10.0267 39.1152 10.4695 39.3883 10.8005C39.6697 11.1233 40.0173 11.3592 40.4311 11.5081C40.8532 11.6488 41.2877 11.7192 41.7346 11.7192C42.2726 11.7192 42.7236 11.6488 43.0878 11.5081C43.452 11.3592 43.7292 11.1605 43.9196 10.9122C44.1099 10.6557 44.2051 10.366 44.2051 10.0432Z" fill="black"/>
<path d="M52.9572 0.248288V13.6807H49.953V0.248288H52.9572Z" fill="black"/>
<path d="M55.6636 7.11345V6.82791C55.6636 5.85959 55.8043 4.96162 56.0857 4.13399C56.3671 3.29809 56.7726 2.57392 57.3023 1.96147C57.8402 1.34075 58.4941 0.860731 59.2637 0.521404C60.0417 0.173801 60.919 0 61.8956 0C62.8805 0 63.7578 0.173801 64.5275 0.521404C65.3054 0.860731 65.9634 1.34075 66.5013 1.96147C67.0393 2.57392 67.449 3.29809 67.7304 4.13399C68.0118 4.96162 68.1525 5.85959 68.1525 6.82791V7.11345C68.1525 8.08177 68.0118 8.97974 67.7304 9.80737C67.449 10.635 67.0393 11.3592 66.5013 11.9799C65.9634 12.5923 65.3096 13.0724 64.5399 13.42C63.7702 13.7593 62.897 13.9289 61.9204 13.9289C60.9356 13.9289 60.0541 13.7593 59.2762 13.42C58.5065 13.0724 57.8526 12.5923 57.3147 11.9799C56.7767 11.3592 56.3671 10.635 56.0857 9.80737C55.8043 8.97974 55.6636 8.08177 55.6636 7.11345ZM58.6554 6.82791V7.11345C58.6554 7.71761 58.7175 8.28867 58.8417 8.82663C58.9658 9.36459 59.1603 9.83634 59.4251 10.2419C59.69 10.6474 60.0293 10.966 60.4431 11.1978C60.8569 11.4295 61.3494 11.5454 61.9204 11.5454C62.4749 11.5454 62.955 11.4295 63.3605 11.1978C63.7743 10.966 64.1136 10.6474 64.3785 10.2419C64.6433 9.83634 64.8378 9.36459 64.962 8.82663C65.0944 8.28867 65.1606 7.71761 65.1606 7.11345V6.82791C65.1606 6.23202 65.0944 5.66924 64.962 5.13956C64.8378 4.6016 64.6392 4.12572 64.3661 3.7119C64.1012 3.29809 63.7619 2.97532 63.3481 2.74358C62.9425 2.50357 62.4584 2.38356 61.8956 2.38356C61.3328 2.38356 60.8445 2.50357 60.4307 2.74358C60.0252 2.97532 59.69 3.29809 59.4251 3.7119C59.1603 4.12572 58.9658 4.6016 58.8417 5.13956C58.7175 5.66924 58.6554 6.23202 58.6554 6.82791Z" fill="black"/>
<path d="M73.6272 3.11601V13.6807H70.6353V0.248288H73.4534L73.6272 3.11601ZM73.0934 6.4679L72.1251 6.45548C72.1333 5.50371 72.2658 4.63057 72.5223 3.83605C72.7872 3.04153 73.1513 2.35873 73.6148 1.78767C74.0865 1.21661 74.6493 0.777968 75.3031 0.471747C75.957 0.157249 76.6853 0 77.4881 0C78.1336 0 78.7171 0.0910389 79.2385 0.273117C79.7682 0.446918 80.2192 0.732449 80.5917 1.12971C80.9724 1.52697 81.262 2.04424 81.4607 2.68151C81.6593 3.3105 81.7586 4.08433 81.7586 5.003V13.6807H78.7543V4.99058C78.7543 4.34504 78.6592 3.83605 78.4688 3.46361C78.2867 3.08291 78.0178 2.81393 77.6619 2.65668C77.3143 2.49115 76.8798 2.40839 76.3584 2.40839C75.8452 2.40839 75.3859 2.51598 74.9804 2.73117C74.5748 2.94635 74.2314 3.24016 73.95 3.61259C73.6769 3.98502 73.4658 4.41538 73.3168 4.90368C73.1679 5.39198 73.0934 5.91339 73.0934 6.4679Z" fill="black"/>
<path d="M30.5989 27.586V17.3193H33.6032V30.7517H30.7727L30.5989 27.586ZM31.021 24.7928L32.0266 24.768C32.0266 25.6701 31.9273 26.5018 31.7286 27.2633C31.53 28.0164 31.2238 28.6744 30.81 29.2371C30.3961 29.7917 29.8665 30.2262 29.2209 30.5407C28.5754 30.8469 27.8015 31 26.8994 31C26.2456 31 25.6456 30.9048 25.0993 30.7145C24.5531 30.5241 24.0814 30.2303 23.6841 29.833C23.2951 29.4358 22.993 28.9185 22.7779 28.2812C22.5627 27.644 22.4551 26.8826 22.4551 25.997V17.3193H25.4469V26.0218C25.4469 26.5101 25.5049 26.9198 25.6207 27.2508C25.7366 27.5736 25.8939 27.8343 26.0925 28.033C26.2911 28.2316 26.5229 28.3723 26.7877 28.455C27.0525 28.5378 27.3339 28.5792 27.6319 28.5792C28.4843 28.5792 29.1547 28.4137 29.643 28.0826C30.1396 27.7433 30.4913 27.2881 30.6982 26.717C30.9134 26.146 31.021 25.5046 31.021 24.7928Z" fill="black"/>
<path d="M39.6738 19.8767V30.7517H36.682V17.3193H39.5373L39.6738 19.8767ZM43.783 17.2324L43.7582 20.0133C43.5761 19.9802 43.3775 19.9553 43.1623 19.9388C42.9554 19.9222 42.7485 19.9139 42.5416 19.9139C42.0284 19.9139 41.5774 19.9884 41.1884 20.1374C40.7994 20.2781 40.4725 20.485 40.2077 20.7581C39.9511 21.023 39.7525 21.3457 39.6118 21.7264C39.4711 22.1071 39.3883 22.5334 39.3635 23.0051L38.6807 23.0548C38.6807 22.2106 38.7634 21.4285 38.929 20.7085C39.0945 19.9884 39.3428 19.3553 39.6738 18.8091C40.0132 18.2628 40.4353 17.8366 40.9401 17.5304C41.4532 17.2242 42.045 17.071 42.7154 17.071C42.8974 17.071 43.0919 17.0876 43.2988 17.1207C43.514 17.1538 43.6754 17.1911 43.783 17.2324Z" fill="black"/>
<path d="M48.6246 20.1871V30.7517H45.6327V17.3193H48.4508L48.6246 20.1871ZM48.0908 23.5389L47.1225 23.5265C47.1307 22.5748 47.2632 21.7016 47.5197 20.9071C47.7846 20.1126 48.1487 19.4298 48.6122 18.8587C49.0839 18.2877 49.6467 17.849 50.3006 17.5428C50.9544 17.2283 51.6827 17.071 52.4855 17.071C53.131 17.071 53.7145 17.1621 54.2359 17.3442C54.7656 17.518 55.2167 17.8035 55.5891 18.2008C55.9698 18.598 56.2595 19.1153 56.4581 19.7526C56.6567 20.3815 56.756 21.1554 56.756 22.074V30.7517H53.7518V22.0616C53.7518 21.4161 53.6566 20.9071 53.4662 20.5347C53.2841 20.154 53.0152 19.885 52.6593 19.7277C52.3117 19.5622 51.8772 19.4794 51.3558 19.4794C50.8426 19.4794 50.3833 19.587 49.9778 19.8022C49.5722 20.0174 49.2288 20.3112 48.9474 20.6836C48.6743 21.0561 48.4632 21.4864 48.3143 21.9747C48.1653 22.463 48.0908 22.9844 48.0908 23.5389Z" fill="black"/>
<path d="M63.0129 17.3193V30.7517H60.0086V17.3193H63.0129Z" fill="black"/>
</svg>
